{"title":"North Square S01","uid":11847763,"size":3657714752,"categoryP":"video","categoryS":"tv_shows","magnet":"?xt=urn:btih:15c0c37ac983d8ff0be02264216958f532cee55c&amp;dn=North+Square+S01&amp;tr=udp%3A%2F%2Ftracker.openbittorrent.com%3A80&amp;tr=udp%3A%2F%2Fopen.demonii.com%3A1337&amp;tr=udp%3A%2F%2Ftracker.coppersurfer.tk%3A6969&amp;tr=udp%3A%2F%2Fexodus.desync.com%3A6969","seeders":8,"leechers":3,"uploader":"RedBaron58","files":10,"time":1429988094,"description":"North Square S01 DVDrip x264 mp4\n  &lt;a href=&quot;\nhttp://www.imdb.com/title/tt0267201/&quot; rel=&quot;nofollow&quot; target=&quot;_NEW&quot;&gt;\nhttp://www.imdb.com/title/tt0267201/&lt;/a&gt;\n\nTrailer:\n\nThank you for your kind comments on my other torrents, your feedback is welcome.\n\n\nAbout the Series:\nNorth Square is about a group of young, irreverent barristers all hoping to make their mark in the legal \nprofession at a defence chambers in Leeds, West Yorkshire. They are all under the leadership of their \nMachiavellian chief clerk Peter McLeish, who is clever and obsessed by work and doesn't appear to have \na social life. He's struggling to make this new enterprise work and will do anything to make it succeed \nand beat his arch rival Michael Marlowe from whom he left, taking the best barristers with him\nStaring Phil Davis, Rupert Penry Jones, Helen McCrory, and Kevin McKidd\n\nI hope you enjoy.\n\n\nTechnical: (All episodes are encoded to the same settings)\n\nGeneral\nComplete name                            : H:North Square S01North Square S01E01 x264 RB58.mp4\nFormat                                   : MPEG-4\nFormat profile                           : Base Media / Version 2\nCodec ID                                 : mp42\nFile size                                : 330 MiB\nDuration                                 : 46mn 5s\nOverall bit rate mode                    : Variable\nOverall bit rate                         : 1 000 Kbps\nEncoded date                             : UTC 2015-04-15 11:55:26\nTagged date                              : UTC 2015-04-15 12:08:51\nWriting application                      : HandBrake 0.9.9 2013052900\n\nVideo\nID                                       : 1\nFormat                                   : AVC\nFormat/Info                              : Advanced Video Codec\nFormat profile                           : &lt;a class=&quot;__cf_email__&quot; href=&quot;/cdn-cgi/l/email-protection&quot; data-cfemail=&quot;eda08c8483ada1d9c3dd&quot;&gt;[email&amp;#160;protected]&lt;/a&gt;&lt;script cf-hash='f9e31' type=&quot;text/javascript&quot;&gt;\n/* &lt;![CDATA[ */!function(){try{var t=&quot;currentScript&quot;in document?document.currentScript:function(){for(var t=document.getElementsByTagName(&quot;script&quot;),e=t.length;e--;)if(t[e].getAttribute(&quot;cf-hash&quot;))return t[e]}();if(t&amp;&amp;t.previousSibling){var e,r,n,i,c=t.previousSibling,a=c.getAttribute(&quot;data-cfemail&quot;);if(a){for(e=&quot;&quot;,r=parseInt(a.substr(0,2),16),n=2;a.length-n;n+=2)i=parseInt(a.substr(n,2),16)^r,e+=String.fromCharCode(i);e=document.createTextNode(e),c.parentNode.replaceChild(e,c)}}}catch(u){}}();/* ]]&gt; */&lt;/script&gt;\nFormat settings, CABAC                   : Yes\nFormat settings, ReFrames                : 4 frames\nCodec ID                                 : avc1\nCodec ID/Info                            : Advanced Video Coding\nDuration                                 : 46mn 5s\nBit rate mode                            : Variable\nBit rate                                 : 900 Kbps\nWidth                                    : 720 pixels\nHeight                                   : 588 pixels\nDisplay aspect ratio                     : 1.739\nFrame rate mode                          : Constant\nFrame rate                               : 25.000 fps\nColor space                              : YUV\nChroma subsampling                       : 4:2:0\nBit depth                                : 8 bits\nScan type                                : Progressive\nBits/(Pixel*Frame)                       : 0.085\nStream size                              : 297 MiB (90%)\nWriting library                          : x264 core 130 r2273 b3065e6\nEncoding settings                        : cabac=1 / ref=1 / deblock=1:0:0\nEncoded date                             : UTC 2015-04-15 11:55:26\nTagged date                              : UTC 2015-04-15 12:08:51\nColor primaries                          : BT.601 PAL\nTransfer characteristics                 : BT.709\nMatrix coefficients                      : BT.601\n\nAudio\nID                                       : 2\nFormat                                   : AAC\nFormat/Info                              : Advanced Audio Codec\nFormat profile                           : LC\nCodec ID                                 : 40\nDuration                                 : 46mn 5s\nBit rate mode                            : Variable\nBit rate                                 : 96.0 Kbps\nMaximum bit rate                         : 115 Kbps\nChannel(s)                               : 2 channels\nChannel positions                        : Front: L R\nSampling rate                            : 48.0 KHz\nCompression mode                         : Lossy\nDelay relative to video                  : 80ms\nStream size                              : 31.6 MiB (10%)\nLanguage                                 : English\nEncoded date                             : UTC 2015-04-15 11:55:26\nTagged date                              : UTC 2015-04-15 12:08:49","torrent":{"xt":"urn:btih:15c0c37ac983d8ff0be02264216958f532cee55c","amp;dn":"North+Square+S01","amp;tr":["udp%3A%2F%2Ftracker.openbittorrent.com%3A80","udp%3A%2F%2Fopen.demonii.com%3A1337","udp%3A%2F%2Ftracker.coppersurfer.tk%3A6969","udp%3A%2F%2Fexodus.desync.com%3A6969"],"infoHash":"15c0c37ac983d8ff0be02264216958f532cee55c","infoHashBuffer":{"type":"Buffer","data":[21,192,195,122,201,131,216,255,11,224,34,100,33,105,88,245,50,206,229,92]},"announce":[],"urlList":[]}}